<?xml version="1.0" standalone="no"?><!DOCTYPE svg PUBLIC "-//W3C//DTD SVG 1.1//EN" "http://www.w3.org/Graphics/SVG/1.1/DTD/svg11.dtd"><svg class="icon" width="200px" height="200.00px" viewBox="0 0 1024 1024" version="1.1" xmlns="http://www.w3.org/2000/svg"><path d="M740.010667 633.984l34.005333 34.005333t16.981333 18.005333 16 18.986667 15.018667 18.986667 13.013333 20.010667 9.984 22.016 6.016 22.997333 2.005333 24.021333-0.981333 25.002667q-22.016 84.010667-100.010667 100.010667-13.994667 2.005333-96.981333-8.021333t-139.008-9.984l-8.021333 0q-56.021333 0-139.008 9.984t-96.981333 8.021333q-77.994667-16-100.010667-100.010667-6.016-40.021333 13.994667-82.005333t36.992-59.989333 61.013333-61.994667q20.010667-22.016 52.992-61.994667t52.992-61.994667q36.010667-43.989333 73.984-56.021333 8.021333-4.010667 13.994667-4.010667 11.989333-2.005333 34.005333-2.005333 24.021333 0 34.005333 2.005333 6.016 0 13.994667 4.010667 38.016 11.989333 73.984 56.021333 18.005333 22.016 52.010667 61.994667t54.016 61.994667zM726.016 406.016q0-43.989333 31.018667-75.989333t75.008-32 75.008 32 31.018667 75.989333-31.018667 75.008-75.008 31.018667-75.008-31.018667-31.018667-75.008zM534.016 233.984q0-43.989333 31.018667-75.008t75.008-31.018667 75.008 31.018667 31.018667 75.008-31.018667 75.989333-75.008 32-75.008-32-31.018667-75.989333zM278.016 233.984q0-43.989333 31.018667-75.008t75.008-31.018667 75.008 31.018667 31.018667 75.008-31.018667 75.989333-75.008 32-75.008-32-31.018667-75.989333zM86.016 406.016q0-43.989333 31.018667-75.989333t75.008-32 75.008 32 31.018667 75.989333-31.018667 75.008-75.008 31.018667-75.008-31.018667-31.018667-75.008z" fill="#444444" /></svg>