<?xml version="1.0" standalone="no"?><!DOCTYPE svg PUBLIC "-//W3C//DTD SVG 1.1//EN" "http://www.w3.org/Graphics/SVG/1.1/DTD/svg11.dtd"><svg class="icon" width="200px" height="200.00px" viewBox="0 0 1024 1024" version="1.1" xmlns="http://www.w3.org/2000/svg"><path d="M682.666667 42.666667a42.666667 42.666667 0 0 1 42.666666 42.666666v42.624L938.666667 128v256l-86.186667-0.042667 118.058667 324.096a170.666667 170.666667 0 0 1-325.12 102.656h-181.461334a170.752 170.752 0 0 1-332.8-9.728A85.205333 85.205333 0 0 1 85.333333 725.333333V170.666667a42.666667 42.666667 0 0 1 42.666667-42.666667h298.666667a42.666667 42.666667 0 0 1 42.666666 42.666667v341.333333a42.666667 42.666667 0 0 0 37.674667 42.368L512 554.666667h85.333333a42.666667 42.666667 0 0 0 42.368-37.674667L640 512V128h-128V42.666667h170.666667zM298.666667 682.666667a85.333333 85.333333 0 1 0 0 170.666666 85.333333 85.333333 0 0 0 0-170.666666z m512-0.042667a85.333333 85.333333 0 1 0 0 170.666667 85.333333 85.333333 0 0 0 0-170.666667z m-48.981334-298.666667H725.333333V512a128 128 0 0 1-128 128h-85.333333a128.042667 128.042667 0 0 1-120.704-85.333333H170.666667v100.437333A170.752 170.752 0 0 1 463.957333 725.333333h181.418667a170.752 170.752 0 0 1 194.986667-125.44l-78.677334-215.936zM384 341.333333H170.666667v128h213.333333V341.333333z m469.333333-128h-128v85.333334h128V213.333333zM384 213.333333H170.666667v42.666667h213.333333V213.333333z" /></svg>