<?xml version="1.0" standalone="no"?>
<!DOCTYPE svg PUBLIC "-//W3C//DTD SVG 20010904//EN"
 "http://www.w3.org/TR/2001/REC-SVG-20010904/DTD/svg10.dtd">
<svg version="1.0" xmlns="http://www.w3.org/2000/svg"
 width="700.000000pt" height="700.000000pt" viewBox="0 0 700.000000 700.000000"
 preserveAspectRatio="xMidYMid meet">
<metadata>
Created by potrace 1.14, written by Peter Selinger 2001-2017
</metadata>
<g transform="translate(0.000000,700.000000) scale(0.100000,-0.100000)"
fill="#000000" stroke="none">
<path d="M3427 6985 c-52 -27 -75 -47 -97 -87 -21 -38 -23 -54 -24 -170 0 -70
-3 -128 -6 -129 -51 -7 -165 -30 -196 -40 -17 -5 -41 -11 -52 -14 -31 -6 -197
-73 -263 -106 -95 -47 -260 -163 -345 -243 -139 -129 -253 -282 -336 -449 -48
-96 -111 -270 -123 -336 -3 -19 -8 -37 -10 -40 -2 -4 -6 -29 -9 -56 -3 -28 -9
-70 -12 -95 -12 -77 -10 -241 3 -337 20 -153 60 -266 129 -370 35 -53 159
-183 175 -183 4 0 14 -6 21 -12 44 -40 190 -106 318 -143 164 -47 324 -71 555
-81 77 -4 142 -8 145 -11 2 -2 5 -46 6 -98 l2 -94 -328 -3 -328 -3 -39 -31
c-21 -17 -48 -48 -60 -70 -21 -38 -22 -48 -21 -314 1 -285 -3 -374 -28 -590
-3 -30 -7 -66 -9 -80 -5 -49 -46 -276 -57 -315 -5 -22 -12 -51 -15 -65 -24
-136 -138 -451 -232 -639 -74 -148 -208 -366 -253 -412 -8 -8 -21 -24 -29 -36
-84 -121 -283 -315 -489 -476 -8 -7 -54 -38 -102 -70 -100 -66 -135 -106 -146
-169 -24 -126 58 -212 286 -302 126 -50 414 -128 562 -152 14 -2 45 -9 70 -14
46 -10 152 -29 205 -37 17 -2 68 -10 115 -18 47 -8 109 -17 139 -20 30 -4 61
-8 70 -10 9 -1 45 -6 81 -10 36 -4 72 -8 81 -10 15 -3 62 -8 189 -21 30 -3 69
-7 86 -9 94 -13 289 -15 341 -5 212 43 411 195 638 485 90 115 220 350 310
561 62 144 165 454 190 572 2 9 15 69 29 132 14 63 28 131 31 150 3 19 10 60
15 90 15 88 19 112 25 165 4 28 8 61 10 75 11 78 19 155 32 350 15 210 6 1049
-12 1124 -1 6 -6 26 -10 44 -10 43 -74 106 -123 120 -27 8 -162 12 -439 12
l-399 0 2 93 c1 50 2 95 3 98 0 3 35 7 76 8 41 1 97 4 123 6 26 2 76 7 112 10
108 9 171 19 328 51 62 13 196 60 267 95 259 127 411 350 442 651 8 86 8 265
-1 326 -3 23 -9 61 -12 85 -18 138 -108 388 -185 516 -226 378 -556 627 -974
736 -33 9 -77 18 -98 21 -21 3 -46 7 -55 9 -9 2 -19 4 -22 4 -3 1 -5 51 -5
111 1 132 -13 186 -60 233 -51 51 -151 72 -208 42z"/>
</g>
</svg>
