<?xml version="1.0" standalone="no"?>
<!DOCTYPE svg PUBLIC "-//W3C//DTD SVG 20010904//EN"
 "http://www.w3.org/TR/2001/REC-SVG-20010904/DTD/svg10.dtd">
<svg version="1.0" xmlns="http://www.w3.org/2000/svg"
 width="260.000000pt" height="260.000000pt" viewBox="0 0 260.000000 260.000000"
 preserveAspectRatio="xMidYMid meet">
<metadata>
Created by potrace 1.14, written by Peter Selinger 2001-2017
</metadata>
<g transform="translate(0.000000,260.000000) scale(0.100000,-0.100000)"
fill="#000000" stroke="none">
<path d="M1240 2462 c-331 -25 -632 -185 -843 -449 -126 -158 -224 -390 -243
-573 -4 -43 -5 -274 -1 -295 3 -11 8 -42 12 -69 4 -27 20 -90 36 -140 72 -219
173 -371 360 -541 24 -22 33 -27 19 -12 -24 27 -25 35 -28 185 -2 97 1 171 8
195 9 32 8 41 -8 65 -22 30 -57 105 -79 166 -54 155 -62 353 -20 517 25 96 76
209 128 285 25 37 27 44 17 85 -5 24 -8 95 -6 157 5 126 16 153 79 184 31 17
83 18 636 18 533 0 607 -2 643 -16 66 -27 75 -53 76 -231 2 -150 2 -152 32
-195 195 -285 207 -678 29 -971 -29 -47 -29 -48 -12 -83 14 -30 16 -61 13
-190 l-3 -153 43 42 c165 160 289 378 339 597 23 101 27 358 7 459 -31 162
-97 323 -183 450 -50 74 -183 215 -253 269 -227 174 -523 265 -798 244z"/>
<path d="M663 2005 l1 -165 408 0 c267 0 408 -3 408 -10 0 -10 -98 -133 -668
-834 -53 -65 -120 -148 -147 -183 l-51 -64 2 -162 c1 -89 2 -165 3 -170 0 -4
317 -6 703 -5 l703 3 0 163 0 162 -30 1 c-16 0 -227 1 -468 1 -410 0 -473 4
-440 27 5 3 25 26 45 51 47 60 302 374 344 425 18 22 134 165 258 318 l226
279 0 164 0 164 -649 0 -649 0 1 -165z"/>
<path d="M610 355 c0 -8 164 -107 216 -131 333 -150 704 -140 1035 27 48 24
149 87 149 92 0 1 -300 1 -666 -1 -397 -1 -679 1 -700 7 -19 5 -34 8 -34 6z"/>
</g>
</svg>
