<?xml version="1.0" standalone="no"?>
<!DOCTYPE svg PUBLIC "-//W3C//DTD SVG 20010904//EN"
 "http://www.w3.org/TR/2001/REC-SVG-20010904/DTD/svg10.dtd">
<svg version="1.0" xmlns="http://www.w3.org/2000/svg"
 width="632.000000pt" height="632.000000pt" viewBox="0 0 632.000000 632.000000"
 preserveAspectRatio="xMidYMid meet">
<metadata>
Created by potrace 1.14, written by Peter Selinger 2001-2017
</metadata>
<g transform="translate(0.000000,632.000000) scale(0.100000,-0.100000)"
fill="#000000" stroke="none">
<path d="M5190 6314 c-8 -3 -35 -15 -60 -27 -54 -26 -147 -28 -340 -8 -69 8
-179 15 -245 17 -66 2 -158 5 -205 8 -75 4 -82 3 -60 -10 25 -13 25 -13 3 -14
-13 0 -23 -4 -23 -10 0 -5 10 -10 23 -11 21 0 21 -1 2 -10 -17 -8 -16 -9 7 -6
16 2 26 -1 25 -7 -1 -6 18 -13 43 -16 25 -4 62 -16 83 -28 21 -12 51 -22 68
-22 18 0 28 -4 24 -10 -3 -6 4 -10 18 -10 22 0 24 -4 23 -37 -2 -45 -24 -83
-48 -83 -9 0 -20 -5 -23 -10 -4 -6 -12 -10 -18 -9 -32 4 -57 -14 -57 -41 0
-34 -19 -51 -48 -43 -16 4 -22 1 -20 -7 2 -8 -14 -19 -37 -26 -22 -7 -32 -13
-22 -13 30 -2 19 -21 -12 -21 -46 0 -61 -10 -61 -40 0 -19 -9 -36 -25 -48 -14
-11 -25 -24 -25 -30 0 -17 -27 -62 -33 -56 -3 3 -46 7 -96 8 -50 1 -85 -2 -78
-5 12 -6 90 -14 251 -25 43 -3 90 -10 103 -15 18 -6 23 -5 23 6 0 8 6 15 13
16 27 1 50 8 56 16 3 4 44 27 91 49 86 41 186 68 196 52 4 -7 7 -122 4 -210 0
-15 -21 -40 -63 -75 -8 -7 -17 -18 -20 -25 -2 -7 -8 -9 -13 -5 -5 4 -2 13 6
18 12 9 12 10 -3 5 -10 -3 -20 -6 -23 -6 -2 0 -1 -7 2 -15 4 -9 0 -15 -7 -15
-11 0 -11 -3 1 -10 29 -20 -43 2 -200 62 -181 69 -37 52 -1210 138 -443 32
-808 56 -811 52 -5 -6 -40 -267 -39 -299 0 -7 27 -27 60 -45 56 -31 59 -35 55
-63 -3 -16 -39 -295 -80 -620 -41 -324 -78 -602 -82 -616 -8 -26 -11 -24 -208
133 -110 88 -208 165 -218 173 -18 13 -16 36 54 607 40 326 74 595 76 597 1 2
25 -8 53 -23 l49 -27 5 23 c3 13 12 79 20 147 9 68 18 126 21 129 5 5 1708
-123 1768 -133 15 -2 27 0 27 5 0 6 -3 9 -7 8 -5 -1 -26 1 -48 5 -46 8 -1937
158 -1941 154 -2 -1 -5 -23 -8 -47 -3 -25 -8 -61 -11 -80 -2 -19 -7 -60 -10
-90 -4 -30 -8 -66 -10 -80 -2 -14 -6 -47 -10 -75 -3 -27 -7 -66 -10 -85 -4
-31 -17 -135 -31 -245 -2 -22 -29 -240 -59 -485 -68 -551 -85 -687 -91 -714
-2 -11 -5 -38 -6 -58 -1 -34 -4 -38 -27 -39 -25 0 -44 -2 -126 -13 -89 -12
-122 -16 -170 -20 -236 -20 -330 -38 -437 -82 -119 -49 -322 -126 -408 -154
-96 -32 -221 -78 -330 -120 -58 -23 -124 -48 -147 -57 l-43 -15 0 -654 0 -653
102 -3 102 -3 12 -48 c7 -26 8 -49 4 -52 -5 -3 -11 0 -13 5 -4 7 -5 6 -4 -1 2
-6 6 -10 11 -9 5 1 12 -4 16 -10 5 -9 21 1 49 29 22 22 38 41 34 41 -4 0 10
16 31 35 21 19 43 35 47 35 5 0 33 -13 62 -30 l54 -30 -50 -54 -49 -55 -48 30
c-26 16 -51 29 -56 29 -5 -1 -27 -18 -48 -40 -39 -38 -63 -48 -35 -14 13 16
12 16 -9 3 -12 -8 -22 -17 -22 -21 0 -13 -122 -133 -132 -130 -5 1 -7 -2 -3
-8 3 -5 1 -10 -4 -10 -6 0 -14 0 -18 0 -5 0 -8 4 -8 9 0 5 -4 13 -8 18 -5 4
-8 4 -6 -2 1 -5 -1 -18 -5 -27 -4 -9 -6 -34 -4 -55 3 -32 10 -41 42 -59 l39
-22 48 52 48 51 -22 17 c-43 34 -57 33 -103 -13 -24 -24 -44 -39 -44 -34 0 5
44 51 97 101 l97 91 51 -30 c27 -16 52 -33 53 -38 2 -6 11 -4 20 3 13 11 14
11 10 -2 -3 -8 -12 -14 -21 -14 -9 1 -71 -57 -139 -129 -68 -73 -135 -143
-150 -157 l-28 -24 0 -758 0 -758 240 0 240 0 1 33 c1 17 0 37 -1 42 -1 6 -2
15 -1 20 1 6 3 82 5 170 3 88 11 248 20 355 9 107 18 227 20 265 3 39 13 161
22 272 9 111 14 213 10 226 -3 13 -21 43 -41 68 -19 24 -35 48 -35 53 0 5 -20
37 -45 72 -43 60 -46 67 -43 121 l3 58 89 2 89 3 -5 -70 c-4 -46 -2 -70 5 -70
7 0 7 -4 -1 -12 -7 -7 -12 -26 -11 -42 l1 -31 7 31 c4 17 10 35 14 40 3 5 8
38 12 74 4 36 11 68 17 71 6 4 1 9 -13 11 -21 3 -26 14 -51 118 -16 67 -25
125 -21 140 3 14 6 28 5 32 -1 5 2 7 6 5 4 -1 47 32 94 73 71 62 91 86 113
137 l28 63 -44 39 c-24 21 -44 38 -44 37 0 -1 -22 -25 -49 -53 l-48 -51 50
-29 50 -28 -45 -50 -45 -49 -60 31 c-47 25 -60 28 -65 17 -3 -8 -10 -14 -15
-14 -7 0 -7 4 0 13 8 9 -21 139 -103 472 -62 253 -110 463 -107 466 4 4 232
102 507 218 l500 212 320 34 c176 19 334 37 351 40 l32 5 -24 92 c-12 51 -21
94 -19 96 2 2 16 -8 30 -23 15 -14 29 -25 30 -23 2 2 11 59 20 128 9 69 18
127 21 129 4 4 23 -10 75 -56 l25 -23 -17 -138 -18 -137 45 -44 c25 -24 47
-41 50 -38 3 2 12 66 22 140 l17 136 108 -90 c60 -50 110 -89 111 -87 2 1 11
66 20 143 10 77 19 141 20 142 1 1 29 -19 62 -45 l60 -47 -17 -125 c-10 -69
-18 -138 -18 -154 l-1 -28 138 7 c75 4 140 10 145 14 5 5 86 551 87 589 0 3
280 3 280 -1 0 -2 -18 -131 -40 -288 -22 -156 -40 -286 -40 -289 0 -5 272 -1
278 5 1 1 20 130 43 286 22 156 41 284 42 285 1 1 118 4 260 7 224 6 257 5
257 -8 0 -15 -65 -462 -75 -519 l-5 -28 124 3 c68 2 127 6 129 9 4 4 87 524
87 545 0 3 54 5 120 5 66 0 120 -3 120 -7 0 -8 -25 -167 -35 -230 l-6 -33 116
0 117 0 -7 -52 c-3 -29 -10 -75 -15 -103 -5 -27 -29 -177 -52 -333 -23 -155
-44 -286 -48 -291 -3 -5 -77 -14 -165 -20 -88 -6 -189 -13 -225 -16 -36 -3
-137 -10 -224 -15 -131 -9 -161 -14 -172 -28 -7 -9 -9 -18 -4 -20 5 -2 9 -155
10 -341 l0 -338 -82 -6 c-46 -4 -107 -7 -135 -7 -44 0 -53 -3 -53 -17 -3 -117
-13 -263 -20 -283 -5 -14 -11 -36 -13 -50 -3 -16 -5 -9 -6 16 0 23 -8 47 -16
54 -17 14 -22 130 -5 130 6 0 10 18 10 39 0 22 4 41 8 43 4 2 15 18 24 37 12
26 16 69 17 184 l2 149 -248 -5 c-136 -3 -236 -3 -220 0 26 4 31 12 28 41 -1
9 37 12 164 12 125 0 165 3 166 13 1 6 2 19 3 27 1 10 14 16 44 17 41 3 42 2
43 -30 3 -77 17 52 20 185 5 158 -5 147 122 149 49 1 83 7 94 16 16 12 14 13
-17 6 -19 -4 -69 -8 -110 -8 -41 0 -78 -4 -82 -10 -5 -6 -8 -5 -8 3 0 9 -8 9
-35 -2 -30 -13 -49 -13 -122 -3 -63 8 -88 8 -90 0 -2 -6 -13 -9 -23 -6 -11 3
-20 0 -20 -6 0 -6 -17 -11 -40 -11 -26 0 -39 4 -37 12 1 7 -8 14 -20 16 -13 2
-23 -1 -23 -7 0 -6 -18 -10 -42 -9 -36 1 -38 2 -11 5 33 4 61 28 49 41 -4 4
-42 8 -84 9 -42 1 -107 5 -144 9 -49 5 -68 4 -68 -5 0 -14 -56 -15 -65 -1 -3
6 1 10 9 10 9 0 16 5 16 10 0 15 -57 12 -63 -2 -4 -10 -8 -9 -17 2 -9 11 -13
12 -17 3 -8 -21 -43 -15 -43 7 0 11 -4 20 -9 20 -5 0 -12 10 -16 23 -7 21 -8
20 -12 -7 -3 -16 0 -32 5 -35 25 -16 9 -81 -20 -81 -15 0 -18 5 -13 20 4 11 2
20 -4 20 -6 0 -11 6 -11 13 0 19 -30 17 -31 -2 0 -12 -3 -11 -10 4 -11 23 3
75 21 75 5 0 10 7 10 15 0 8 -4 15 -9 15 -8 0 -7 48 3 170 10 108 -12 -9 -33
-185 -12 -93 -24 -180 -26 -192 -5 -22 7 -25 35 -8 13 7 13 6 2 -7 -26 -32
-61 -13 -170 93 -159 155 -146 129 -157 292 l-10 142 -41 3 c-28 2 -47 -3 -62
-15 -19 -16 -21 -23 -12 -58 24 -99 242 -1053 246 -1080 4 -29 1 -33 -173
-140 -98 -60 -184 -109 -191 -109 -7 1 -11 -1 -7 -4 6 -6 -122 -92 -137 -92
-5 0 -24 -11 -41 -24 -18 -13 -52 -35 -77 -48 -72 -40 -153 -90 -175 -108 -11
-9 -37 -25 -59 -34 -21 -10 -40 -26 -43 -36 -4 -16 -30 -18 -301 -24 -163 -3
-332 -9 -375 -12 -75 -6 -77 -7 -55 -23 13 -9 26 -15 30 -14 4 2 5 -4 2 -12
-4 -10 0 -15 11 -15 9 0 14 3 12 8 -3 4 56 6 131 6 l137 -2 108 -93 c59 -52
114 -93 122 -93 8 1 13 -2 10 -6 -3 -4 2 -13 9 -19 10 -8 16 -9 21 -1 3 5 1
10 -4 10 -6 0 -11 4 -11 8 0 4 33 9 73 10 39 2 80 5 89 8 12 4 16 1 13 -8 -4
-9 -19 -13 -43 -12 -20 2 -26 0 -12 -2 61 -12 64 -22 8 -30 -21 -3 -28 -2 -20
4 11 7 11 10 -3 15 -9 4 -18 1 -22 -9 -3 -8 -15 -14 -27 -13 -11 2 -30 0 -41
-4 -11 -4 -89 -11 -174 -16 -84 -6 -155 -11 -156 -13 -1 -2 -25 -111 -52 -244
l-50 -241 76 4 c42 2 106 6 142 9 37 3 69 2 72 -3 3 -5 -7 -198 -23 -428 -16
-231 -30 -436 -31 -455 -3 -38 8 -80 20 -80 4 0 8 30 9 68 1 37 5 78 8 92 4
14 7 48 7 77 1 28 4 50 7 48 3 -2 7 12 7 31 1 19 -4 34 -10 34 -8 0 -8 3 -2 8
6 4 10 41 11 82 1 75 12 264 19 330 9 81 12 98 20 110 5 9 4 11 -3 6 -7 -4
-12 -3 -12 3 0 5 5 11 10 13 6 2 15 53 20 113 9 101 71 409 86 424 3 3 3 -23
0 -59 -4 -36 -24 -339 -46 -675 -22 -335 -42 -634 -45 -662 l-5 -53 2570 0
2570 0 0 899 0 900 -42 4 -43 4 43 1 42 2 0 346 c0 331 -1 345 -18 332 -70
-51 -292 -231 -292 -237 0 -5 19 -57 41 -117 23 -60 48 -128 55 -152 15 -47 9
-51 -42 -32 -14 6 -70 15 -123 21 -233 24 -300 31 -356 37 l-59 7 -58 145
c-31 80 -57 150 -58 157 0 6 57 53 128 104 70 52 155 115 189 141 34 26 67 48
72 48 6 0 15 -8 20 -19 6 -10 31 -24 57 -30 45 -12 48 -11 75 15 16 15 25 30
21 33 -23 16 -64 83 -56 91 5 5 61 48 124 95 l115 85 82 0 83 0 0 976 0 976
-33 -6 c-51 -10 -87 22 -87 77 0 37 7 49 51 95 28 28 55 52 60 52 5 0 9 161 9
381 0 374 0 380 -20 374 -15 -5 -21 0 -26 20 -3 14 -14 30 -23 35 -13 9 -13
10 -1 9 8 -1 27 -1 43 0 25 1 27 4 27 46 l0 45 -40 0 c-43 0 -60 18 -60 65 0
20 8 29 33 40 28 12 34 11 50 -2 16 -15 17 -13 17 29 0 41 -3 46 -40 67 -45
25 -49 38 -20 69 11 12 20 30 20 41 0 11 10 27 22 35 l22 16 -27 0 c-15 0 -33
-4 -40 -10 -86 -70 -92 -72 -101 -35 -7 29 -26 34 -26 6 0 -10 -7 -24 -15 -31
-22 -18 -48 11 -39 45 l6 25 -101 0 c-94 0 -101 -1 -101 -20 0 -25 -5 -25 -29
-1 -18 18 -36 20 -190 20 -159 1 -171 0 -171 -17 0 -10 5 -23 12 -30 10 -10 5
-11 -22 -9 -19 3 -45 0 -57 -6 -17 -7 -28 -5 -54 14 -18 12 -27 25 -21 27 7 2
12 8 12 13 0 9 -143 11 -170 3z m806 -92 c0 -31 -4 -52 -10 -52 -6 0 -20 -3
-31 -6 -11 -3 -28 1 -39 9 -17 13 -17 14 3 52 22 42 39 56 61 52 11 -1 15 -17
16 -55z m-1133 -47 c8 -8 17 -12 20 -9 3 3 10 -4 17 -15 6 -12 17 -21 25 -21
8 0 15 -5 15 -11 0 -6 -7 -9 -15 -5 -24 9 -20 -51 4 -64 27 -14 71 7 71 33 0
26 28 57 51 57 45 0 91 -42 75 -69 -6 -9 -63 -25 -82 -22 -6 1 -23 -15 -38
-34 -17 -22 -36 -35 -49 -35 -26 0 -63 -24 -94 -61 -32 -37 -77 -44 -114 -18
-26 18 -29 25 -23 57 3 21 16 46 28 57 20 18 23 33 15 85 -5 34 2 60 16 60 8
0 15 7 15 15 0 19 44 20 63 0z m1345 -22 c2 -21 -3 -38 -15 -50 -10 -10 -17
-26 -15 -35 7 -36 -20 -26 -48 18 -36 57 -36 58 -9 85 14 14 30 19 52 17 28
-3 32 -7 35 -35z m-388 -23 c0 -5 -7 -16 -16 -25 -13 -13 -19 -13 -31 -3 -13
11 -12 14 7 30 21 17 40 16 40 -2z m-1210 -30 c0 -5 -4 -10 -10 -10 -5 0 -10
5 -10 10 0 6 5 10 10 10 6 0 10 -4 10 -10z m1460 -23 c0 -5 5 -5 10 -2 14 8
12 -11 -5 -67 -8 -27 -12 -48 -10 -48 3 0 -4 -17 -15 -37 -11 -21 -20 -50 -20
-66 0 -43 -32 -31 -48 17 -10 33 -10 42 3 62 8 13 15 31 15 40 0 10 7 25 15
34 20 22 8 60 -19 60 -14 0 -17 3 -8 8 16 11 82 10 82 -1z m-136 -16 c16 -17
16 -23 3 -62 -8 -24 -19 -45 -23 -46 -5 -2 -22 7 -38 20 -27 22 -28 24 -15 65
9 33 17 42 34 42 12 0 30 -9 39 -19z m-162 -102 c-2 -8 -8 -18 -13 -23 -13
-14 -33 9 -26 28 7 18 43 13 39 -5z m420 -59 c1 -38 2 -80 2 -92 1 -33 -40
-26 -78 12 -29 29 -29 30 -15 72 16 50 41 78 69 78 18 0 20 -7 22 -70z m-274
-53 c19 -15 14 -45 -8 -52 -33 -10 -81 5 -89 28 -5 14 -4 25 3 29 15 10 78 7
94 -5z m122 -126 c0 -23 -35 -34 -50 -15 -16 18 -4 34 26 34 17 0 24 -6 24
-19z m-294 -37 c-3 -8 -10 -14 -15 -14 -10 0 -9 9 6 48 6 16 6 16 10 -1 3 -10
2 -25 -1 -33z m95 -519 c20 -3 45 -16 57 -30 l22 -25 22 20 c25 23 19 22 117
10 41 -6 85 -17 98 -25 13 -9 40 -15 62 -13 39 2 76 -16 65 -33 -3 -5 -18 -9
-35 -9 -16 0 -29 -5 -29 -12 0 -9 -3 -9 -9 1 -8 12 -12 12 -25 2 -8 -7 -12
-19 -9 -27 3 -8 1 -14 -5 -14 -5 0 -12 -9 -15 -20 -4 -17 -9 -19 -32 -10 -35
13 -45 13 -45 -3 0 -7 16 -21 35 -31 26 -14 36 -28 41 -53 3 -18 10 -36 15
-39 12 -7 11 -54 -1 -54 -5 0 -10 -6 -10 -12 0 -20 -71 -54 -117 -57 -32 -2
-46 2 -60 18 -21 25 -44 26 -83 6 -32 -17 -67 -13 -111 13 -21 11 -33 12 -57
4 -38 -13 -52 0 -45 43 3 19 0 35 -6 39 -20 13 -12 46 21 87 24 30 39 39 62
39 31 1 31 1 10 18 -12 10 -25 28 -28 40 -7 20 -23 26 -63 25 -18 -1 -16 16 2
23 8 4 15 16 15 28 0 25 18 51 40 59 15 5 28 4 101 -8z m440 -395 c28 -15 24
-48 -6 -56 -44 -11 -101 44 -62 59 21 9 47 7 68 -3z m-1449 -112 c-8 -8 -9 -4
-5 13 4 13 8 18 11 10 2 -7 -1 -18 -6 -23z m-1306 -172 c2 -1 -37 -270 -39
-273 -1 0 -62 -3 -135 -5 -112 -2 -132 -1 -132 12 0 21 31 252 36 268 3 11 30
12 137 7 72 -4 133 -8 133 -9z m-2287 -740 c-4 -4 -213 -86 -589 -231 -124
-47 -252 -97 -285 -110 -33 -12 -103 -28 -155 -34 -52 -7 -104 -14 -115 -17
-13 -4 -16 -3 -10 3 6 5 73 33 150 62 77 29 167 64 200 76 260 100 341 131
458 177 105 41 153 54 232 64 55 6 104 12 109 13 5 0 7 -1 5 -3z m-1046 -433
c-7 -2 -19 -2 -25 0 -7 3 -2 5 12 5 14 0 19 -2 13 -5z m2714 -199 c-3 -3 -12
-4 -19 -1 -8 3 -5 6 6 6 11 1 17 -2 13 -5z m-350 -86 c-7 -4 5 -8 28 -9 38 -1
39 -2 10 -8 -35 -8 -55 2 -50 27 2 9 4 19 4 22 1 3 5 -2 11 -10 6 -9 5 -17 -3
-22z m358 27 c-22 -8 -134 -11 -123 -3 7 4 40 7 73 7 33 0 56 -2 50 -4z m52
-30 c0 -8 -9 -15 -19 -15 -11 0 -17 -4 -14 -9 4 -5 0 -12 -6 -14 -7 -3 -1 -6
15 -6 l27 -1 0 -217 c0 -120 -3 -262 -7 -315 l-6 -98 -145 0 -145 0 7 198 c3
108 7 251 7 317 1 66 4 127 8 135 4 10 22 15 56 16 78 1 207 12 213 18 8 9 9
8 9 -9z m-317 1 c0 -3 -4 -8 -10 -11 -5 -3 -10 -1 -10 4 0 6 5 11 10 11 6 0
10 -2 10 -4z m3137 -202 c24 -9 43 -20 43 -24 0 -4 -11 -23 -24 -43 -18 -27
-21 -38 -13 -48 7 -7 -3 -1 -21 14 -19 15 -39 27 -45 27 -32 1 -39 16 -23 54
17 41 24 42 83 20z m-2314 -481 c-7 -2 -19 -2 -25 0 -7 3 -2 5 12 5 14 0 19
-2 13 -5z m-484 -201 c1 -48 -2 -61 -11 -56 -10 6 -10 4 0 -7 15 -17 16 -30 0
-26 -7 1 -14 -9 -16 -23 -3 -20 -1 -23 9 -12 19 18 69 16 69 -4 0 -13 -3 -14
-14 -5 -10 9 -20 9 -40 0 -23 -11 -26 -19 -27 -63 -4 -136 -8 -198 -12 -203
-5 -4 -91 -10 -224 -14 -43 -1 -61 -5 -56 -13 3 -6 3 -8 -2 -4 -8 8 -7 319 1
327 5 5 98 10 204 11 36 0 71 4 78 9 9 5 13 41 13 130 0 68 3 130 7 139 8 18
19 -83 21 -186z m194 181 c-13 -2 -33 -2 -45 0 -13 2 -3 4 22 4 25 0 35 -2 23
-4z m257 -9 c0 -7 -27 -34 -34 -34 -3 0 -6 9 -6 20 0 13 7 20 20 20 11 0 20
-3 20 -6z m-379 -134 c10 0 19 -5 19 -11 0 -5 -10 -9 -22 -7 -20 3 -22 -1 -20
-33 2 -21 -1 -40 -7 -44 -13 -7 -14 40 -4 100 5 28 8 33 11 18 2 -15 10 -23
23 -23z m359 5 c0 -9 -8 -19 -17 -22 -10 -4 -21 -11 -25 -17 -4 -6 -10 -7 -13
-4 -7 7 34 56 48 57 4 1 7 -6 7 -14z m-413 -87 c-2 -13 -4 -3 -4 22 0 25 2 35
4 23 2 -13 2 -33 0 -45z m793 -223 l0 -215 43 0 c23 0 47 -4 54 -8 7 -4 -12
-8 -42 -8 -30 0 -55 4 -55 9 0 5 -6 7 -12 4 -10 -3 -13 11 -13 53 0 32 3 56 8
53 4 -2 7 1 7 8 0 9 -32 11 -135 6 l-135 -6 0 153 0 154 92 1 c51 1 94 4 97 6
2 3 24 5 48 5 l43 0 0 -215z m-765 185 c-3 -5 -14 -10 -23 -10 -15 0 -15 2 -2
10 20 13 33 13 25 0z m-2725 -136 c0 -8 -19 -13 -24 -6 -3 5 1 9 9 9 8 0 15
-2 15 -3z m-43 -23 c0 -11 -5 -18 -9 -15 -4 3 -5 11 -1 19 7 21 12 19 10 -4z
m115 -3 c-7 -7 -12 -8 -12 -2 0 14 12 26 19 19 2 -3 -1 -11 -7 -17z m2618 12
c0 -5 -4 -10 -10 -10 -5 0 -10 5 -10 10 0 6 5 10 10 10 6 0 10 -4 10 -10z
m-2630 -44 c0 -3 -4 -8 -10 -11 -5 -3 -10 -1 -10 4 0 6 5 11 10 11 6 0 10 -2
10 -4z m3145 -103 c5 -21 11 -23 74 -23 46 0 71 4 74 13 3 6 6 2 6 -10 1 -21
-3 -23 -60 -23 -59 0 -90 10 -116 36 -15 15 -17 44 -3 44 6 0 11 8 11 18 1 9
3 6 6 -8 2 -14 6 -35 8 -47z m1259 51 c5 -14 4 -15 -9 -4 -17 14 -19 20 -6 20
5 0 12 -7 15 -16z m1446 -14 c0 -6 -12 -8 -26 -6 -39 7 -42 16 -6 16 18 0 32
-5 32 -10z m-170 -10 c0 -5 -12 -10 -26 -10 -14 0 -23 4 -19 10 3 6 15 10 26
10 10 0 19 -4 19 -10z m73 3 c-7 -2 -21 -2 -30 0 -10 3 -4 5 12 5 17 0 24 -2
18 -5z m-263 -13 c0 -5 -4 -10 -10 -10 -5 0 -10 5 -10 10 0 6 5 10 10 10 6 0
10 -4 10 -10z m97 4 c-3 -3 -12 -4 -19 -1 -8 3 -5 6 6 6 11 1 17 -2 13 -5z
m-2256 -46 c-4 -17 -12 -33 -20 -36 -10 -3 -11 0 -2 16 6 11 8 28 5 36 -4 10
-1 16 9 16 11 0 13 -7 8 -32z m2513 16 c41 -4 63 -9 55 -14 -24 -13 -311 -22
-339 -11 -30 12 -32 11 55 18 39 3 71 6 73 7 6 6 93 6 156 0z m-3248 -40 c-4
-9 -9 -15 -11 -12 -3 3 -3 13 1 22 4 9 9 15 11 12 3 -3 3 -13 -1 -22z m804
-10 c0 -19 -4 -33 -8 -30 -4 2 -14 1 -22 -5 -12 -7 -11 -9 5 -10 11 0 15 -3 9
-5 -6 -3 -24 2 -40 11 l-29 15 28 0 c22 0 27 5 27 23 0 13 3 27 7 30 15 15 23
5 23 -29z m2075 25 c-26 -7 -24 -8 13 -5 23 2 42 0 42 -5 0 -5 -31 -9 -70 -9
-38 0 -70 2 -70 5 0 7 62 23 90 23 23 0 23 -1 -5 -9z m-955 -19 l25 0 -29 -15
c-36 -19 -60 -19 -53 -1 5 13 -28 14 -85 2 -10 -2 -18 0 -18 5 0 5 8 9 18 10
58 4 84 7 89 13 4 3 11 2 17 -4 5 -5 21 -10 36 -10z m258 13 c-10 -2 -26 -2
-35 0 -10 3 -2 5 17 5 19 0 27 -2 18 -5z m580 -18 c3 -3 -19 -5 -49 -6 -30 0
-108 -4 -174 -9 -84 -6 -134 -5 -165 3 -42 11 -36 12 110 22 137 9 264 4 278
-10z m19 19 c-3 -3 -12 -4 -19 -1 -8 3 -5 6 6 6 11 1 17 -2 13 -5z m-2864 -11
c-7 -2 -19 -2 -25 0 -7 3 -2 5 12 5 14 0 19 -2 13 -5z m511 -18 c10 -14 25
-25 32 -25 8 0 14 11 14 25 0 21 5 25 30 25 17 0 30 -5 30 -10 0 -7 6 -7 18
-1 11 6 24 6 33 0 7 -5 26 -9 42 -9 20 0 27 -5 27 -20 0 -11 -5 -20 -11 -20
-5 0 -8 4 -5 8 2 4 -4 9 -16 9 -18 2 -17 0 7 -23 14 -13 21 -24 14 -24 -7 0
-9 -3 -6 -7 10 -10 132 -3 135 8 5 12 32 12 32 -1 0 -6 16 -8 38 -5 130 16
252 0 252 -34 0 -11 -3 -12 -8 -4 -6 9 -39 9 -137 2 -72 -5 -159 -9 -195 -8
-36 0 -136 -4 -223 -10 -149 -11 -161 -10 -203 8 -27 12 -58 18 -77 16 -28 -4
-29 -4 -7 4 17 6 20 9 8 10 -32 2 -19 18 20 25 27 4 40 2 48 -9 14 -19 30 -19
37 -2 3 8 24 14 53 15 26 1 50 4 52 7 9 9 -7 18 -35 19 -23 1 -29 6 -31 29 -4
34 8 35 32 2z m1589 18 c-13 -2 -33 -2 -45 0 -13 2 -3 4 22 4 25 0 35 -2 23
-4z m-323 -17 c0 -8 3 -8 8 0 9 13 53 13 49 0 -5 -15 -70 -26 -83 -15 -7 5
-16 9 -20 8 -22 -4 -45 2 -40 10 8 12 86 10 86 -3z m-1993 -11 c0 -8 -4 -12
-9 -9 -5 3 -6 10 -3 15 9 13 12 11 12 -6z m1768 5 c6 0 2 -5 -8 -11 -11 -6
-34 -8 -54 -4 -24 4 -33 3 -28 -4 3 -6 13 -11 22 -11 9 0 14 -3 11 -6 -3 -3
-34 0 -69 7 -55 11 -59 13 -38 21 13 6 47 8 76 6 29 -3 50 -1 47 3 -2 4 4 6
13 4 10 -2 23 -4 28 -5z m42 4 c-3 -3 -12 -4 -19 -1 -8 3 -5 6 6 6 11 1 17 -2
13 -5z m40 0 c-3 -3 -12 -4 -19 -1 -8 3 -5 6 6 6 11 1 17 -2 13 -5z m-1221
-11 c-15 -4 -16 -7 -5 -14 10 -6 6 -9 -13 -9 -18 0 -28 5 -28 15 0 10 10 15
33 14 19 -1 25 -3 13 -6z m44 -13 c0 -5 -2 -10 -4 -10 -3 0 -8 5 -11 10 -3 6
-1 10 4 10 6 0 11 -4 11 -10z m340 0 c0 -12 -8 -12 -35 0 -18 8 -17 9 8 9 15
1 27 -3 27 -9z m1307 -6 c-3 -3 -12 -4 -19 -1 -8 3 -5 6 6 6 11 1 17 -2 13 -5z
m-164 -11 c-7 -2 -19 -2 -25 0 -7 3 -2 5 12 5 14 0 19 -2 13 -5z m-1123 -7 c0
-2 -9 -6 -20 -9 -11 -3 -20 -1 -20 4 0 5 9 9 20 9 11 0 20 -2 20 -4z m-815
-16 c-3 -5 -10 -10 -16 -10 -5 0 -9 5 -9 10 0 6 7 10 16 10 8 0 12 -4 9 -10z
m1608 3 c-7 -2 -21 -2 -30 0 -10 3 -4 5 12 5 17 0 24 -2 18 -5z m-4343 -27 c0
-2 -8 -10 -17 -17 -16 -13 -17 -12 -4 4 13 16 21 21 21 13z m2733 -3 c10 -9
58 -13 53 -4 -3 4 1 8 8 8 8 0 12 -7 9 -14 -4 -10 -14 -12 -30 -8 -19 4 -23 3
-17 -7 6 -10 5 -11 -8 -1 -8 7 -18 10 -21 7 -9 -9 -28 6 -22 17 7 11 19 12 28
2z m143 -14 c4 -7 1 -10 -7 -7 -8 3 -24 1 -36 -3 -13 -5 -23 -5 -23 1 0 5 10
11 23 13 12 2 25 5 29 6 4 0 10 -4 14 -10z m147 4 c-7 -2 -19 -2 -25 0 -7 3
-2 5 12 5 14 0 19 -2 13 -5z m-693 -33 c15 -11 29 -18 31 -16 2 2 88 9 190 15
171 11 189 10 223 -5 24 -12 35 -23 31 -33 -2 -9 -7 -41 -10 -71 -3 -30 -13
-101 -22 -157 -18 -113 -10 -104 -93 -108 -14 -1 -61 -4 -105 -8 -44 -4 -109
-9 -145 -12 l-65 -4 28 171 c15 94 25 173 22 176 -3 3 -185 -5 -406 -18 -381
-22 -402 -23 -433 -6 -19 10 -62 18 -105 21 -40 2 -76 7 -79 10 -4 4 27 3 68
-1 68 -6 74 -6 62 9 -12 14 -7 16 42 22 31 4 64 5 74 3 9 -3 127 3 262 12 345
25 395 25 430 0z m1577 -22 c-3 -7 -5 -2 -5 12 0 14 2 19 5 13 2 -7 2 -19 0
-25z m-2422 -7 c-6 -5 -38 -6 -75 -1 l-65 7 75 2 c44 0 70 -3 65 -8z m-145
-21 l25 -20 -34 0 c-28 0 -31 2 -22 14 9 11 9 15 -1 19 -7 3 -8 6 -3 6 6 0 21
-8 35 -19z m77 -16 c-3 -3 -12 -4 -19 -1 -8 3 -5 6 6 6 11 1 17 -2 13 -5z
m2870 -210 c-3 -3 -12 -4 -19 -1 -8 3 -5 6 6 6 11 1 17 -2 13 -5z m-849 -61
c-10 -2 -26 -2 -35 0 -10 3 -2 5 17 5 19 0 27 -2 18 -5z m59 1 c-3 -3 -12 -4
-19 -1 -8 3 -5 6 6 6 11 1 17 -2 13 -5z m26 -46 c-8 -72 -15 -75 -11 -5 1 31
6 57 10 57 4 0 4 -24 1 -52z m-220 35 c-7 -2 -19 -2 -25 0 -7 3 -2 5 12 5 14
0 19 -2 13 -5z m-116 -9 c-3 -3 -12 -4 -19 -1 -8 3 -5 6 6 6 11 1 17 -2 13 -5z
m-30 -81 c-3 -10 -5 -4 -5 12 0 17 2 24 5 18 2 -7 2 -21 0 -30z m1366 10 c-7
-2 -19 -2 -25 0 -7 3 -2 5 12 5 14 0 19 -2 13 -5z m-1160 -20 c-7 -2 -19 -2
-25 0 -7 3 -2 5 12 5 14 0 19 -2 13 -5z m940 0 c-7 -2 -19 -2 -25 0 -7 3 -2 5
12 5 14 0 19 -2 13 -5z m-1123 -48 c0 -5 -5 -3 -11 5 -9 12 -10 11 -6 -6 3
-13 -1 -21 -9 -21 -17 0 -18 11 -2 37 9 14 14 16 20 7 4 -7 8 -16 8 -22z m340
14 c0 -6 -4 -7 -10 -4 -5 3 -10 11 -10 16 0 6 5 7 10 4 6 -3 10 -11 10 -16z
m-293 5 c-3 -3 -12 -4 -19 -1 -8 3 -5 6 6 6 11 1 17 -2 13 -5z m273 -29 c0 -8
-2 -15 -4 -15 -2 0 -6 7 -10 15 -3 8 -1 15 4 15 6 0 10 -7 10 -15z m-62 -12
c-16 -2 -40 -2 -55 0 -16 2 -3 4 27 4 30 0 43 -2 28 -4z m-233 -14 c3 -4 -12
-9 -34 -11 -23 -2 -41 0 -41 3 0 15 62 21 75 8z m72 5 c-3 -3 -12 -4 -19 -1
-8 3 -5 6 6 6 11 1 17 -2 13 -5z m66 -1 c-7 -2 -19 -2 -25 0 -7 3 -2 5 12 5
14 0 19 -2 13 -5z m-3053 -123 c0 -5 -5 -10 -11 -10 -5 0 -7 5 -4 10 3 6 8 10
11 10 2 0 4 -4 4 -10z m37 -772 c-3 -7 -5 -2 -5 12 0 14 2 19 5 13 2 -7 2 -19
0 -25z"/>
<path d="M5895 5034 c-22 -24 -47 -44 -55 -44 -12 0 -11 -4 4 -15 26 -20 33
-19 41 4 11 36 109 51 139 21 5 -5 16 -10 24 -10 9 0 5 8 -11 20 -14 11 -29
20 -34 20 -5 0 -20 11 -33 25 -13 14 -26 25 -29 24 -3 -1 -24 -21 -46 -45z"/>
<path d="M5890 4890 c0 -5 5 -10 10 -10 6 0 10 5 10 10 0 6 -4 10 -10 10 -5 0
-10 -4 -10 -10z"/>
<path d="M5920 4859 c14 -7 50 -23 80 -36 30 -14 63 -29 72 -34 10 -5 31 -9
48 -9 29 0 29 1 13 20 -10 11 -25 20 -34 20 -9 0 -27 9 -41 20 -17 13 -47 21
-94 25 -58 4 -65 3 -44 -6z"/>
<path d="M2704 2993 c11 -11 82 -14 108 -4 17 6 4 9 -46 10 -38 1 -66 -2 -62
-6z"/>
<path d="M2705 2960 c4 -6 11 -8 16 -5 14 9 11 15 -7 15 -8 0 -12 -5 -9 -10z"/>
<path d="M3440 1650 c0 -6 26 -10 59 -10 33 0 63 5 66 10 4 6 -18 10 -59 10
-37 0 -66 -4 -66 -10z"/>
<path d="M2905 1520 c3 -5 12 -7 20 -3 21 7 19 13 -6 13 -11 0 -18 -4 -14 -10z"/>
<path d="M2763 1513 c9 -2 23 -2 30 0 6 3 -1 5 -18 5 -16 0 -22 -2 -12 -5z"/>
<path d="M2628 1503 c7 -3 16 -2 19 1 4 3 -2 6 -13 5 -11 0 -14 -3 -6 -6z"/>
<path d="M2912 1330 c0 -14 2 -19 5 -12 2 6 2 18 0 25 -3 6 -5 1 -5 -13z"/>
<path d="M5420 6309 c0 -5 5 -7 10 -4 6 3 10 8 10 11 0 2 -4 4 -10 4 -5 0 -10
-5 -10 -11z"/>
<path d="M4397 5974 c-4 -4 -7 -14 -7 -23 0 -11 3 -12 11 -4 6 6 10 16 7 23
-2 6 -7 8 -11 4z"/>
<path d="M1630 3896 c0 -2 9 -6 20 -9 11 -3 18 -1 14 4 -5 9 -34 13 -34 5z"/>
<path d="M2923 3183 c9 -2 23 -2 30 0 6 3 -1 5 -18 5 -16 0 -22 -2 -12 -5z"/>
<path d="M2975 3170 l-70 -6 66 -2 c36 -1 70 -7 77 -14 9 -9 12 -7 12 10 0 12
-3 21 -7 20 -5 -1 -39 -4 -78 -8z"/>
<path d="M2973 3143 c9 -2 23 -2 30 0 6 3 -1 5 -18 5 -16 0 -22 -2 -12 -5z"/>
<path d="M3453 3133 c15 -2 39 -2 55 0 15 2 2 4 -28 4 -30 0 -43 -2 -27 -4z"/>
<path d="M3328 3118 c17 -8 26 -8 34 0 9 9 4 12 -22 11 -33 0 -34 -1 -12 -11z"/>
<path d="M3165 3101 c2 -5 14 -11 25 -14 11 -3 18 -1 15 3 -3 5 1 10 7 13 7 2
-2 4 -20 5 -18 0 -30 -3 -27 -7z"/>
<path d="M3246 3101 c-4 -5 1 -8 9 -7 21 3 31 16 12 16 -9 0 -18 -4 -21 -9z"/>
<path d="M3763 3091 c-15 -24 -70 -38 -128 -30 -27 3 -55 2 -61 -2 -6 -5 -13
-6 -16 -3 -3 2 -5 -6 -5 -20 0 -16 6 -28 17 -31 16 -5 200 13 208 20 1 1 -2
14 -7 28 -8 21 -7 28 6 35 8 5 11 12 6 15 -5 3 -14 -2 -20 -12z m-17 -46 c-8
-8 -25 -15 -38 -14 -21 1 -21 2 7 14 40 18 50 18 31 0z"/>
<path d="M1911 2183 c0 -34 1 -36 10 -15 5 13 7 28 4 32 -3 5 1 11 7 13 8 3 6
6 -4 6 -14 1 -18 -7 -17 -36z"/>
<path d="M1850 2120 c-9 -6 -10 -10 -3 -10 6 0 15 5 18 10 8 12 4 12 -15 0z"/>
<path d="M1351 2044 c0 -11 3 -14 6 -6 3 7 2 16 -1 19 -3 4 -6 -2 -5 -13z"/>
<path d="M1680 2000 c0 -5 5 -10 10 -10 6 0 10 5 10 10 0 6 -4 10 -10 10 -5 0
-10 -4 -10 -10z"/>
<path d="M1370 1951 c0 -6 4 -13 10 -16 6 -3 7 1 4 9 -7 18 -14 21 -14 7z"/>
<path d="M1386 1895 c8 -37 14 -45 14 -19 0 10 -5 26 -10 34 -8 11 -9 7 -4
-15z"/>
<path d="M1505 1909 c-4 -6 -5 -13 -2 -16 7 -7 27 6 27 18 0 12 -17 12 -25 -2z"/>
<path d="M1325 1510 c-3 -5 -2 -10 4 -10 5 0 13 5 16 10 3 6 2 10 -4 10 -5 0
-13 -4 -16 -10z"/>
<path d="M592 1307 c0 -7 -3 -64 -6 -127 -3 -63 -8 -134 -12 -157 l-6 -43 51
0 51 0 0 70 c0 39 3 70 8 70 4 0 7 17 6 37 -1 49 -89 192 -92 150z m30 -255
c3 -12 -1 -18 -12 -18 -14 0 -15 4 -6 18 6 10 11 18 12 18 1 0 4 -8 6 -18z
m-8 -61 c-2 -3 -12 3 -22 13 -16 17 -16 18 5 5 12 -7 20 -15 17 -18z"/>
<path d="M771 524 c0 -11 3 -14 6 -6 3 7 2 16 -1 19 -3 4 -6 -2 -5 -13z"/>
<path d="M969 392 c-3 -20 -2 -29 4 -23 5 5 7 19 5 32 -3 20 -5 19 -9 -9z"/>
<path d="M930 250 c0 -35 3 -61 6 -58 7 8 7 108 0 115 -3 4 -6 -22 -6 -57z"/>
<path d="M956 240 c-4 -31 -13 -53 -21 -57 -21 -7 -18 -51 5 -93 l19 -35 1 35
c0 19 3 72 6 118 7 91 0 110 -10 32z m-6 -80 c0 -5 -5 -10 -11 -10 -5 0 -7 5
-4 10 3 6 8 10 11 10 2 0 4 -4 4 -10z m-3 -52 c-3 -8 -6 -5 -6 6 -1 11 2 17 5
13 3 -3 4 -12 1 -19z"/>
<path d="M601 254 c0 -11 3 -14 6 -6 3 7 2 16 -1 19 -3 4 -6 -2 -5 -13z"/>
<path d="M590 171 c0 -32 -25 -62 -33 -39 -2 8 -3 8 -3 -2 1 -8 9 -14 19 -14
21 2 22 -12 1 -20 -40 -15 -52 -7 -52 35 -1 59 -9 59 -13 1 -2 -28 -1 -48 4
-45 4 2 7 0 7 -4 0 -5 18 -7 40 -5 l40 4 0 59 c0 32 -2 59 -5 59 -3 0 -5 -13
-5 -29z"/>
<path d="M630 146 c0 -8 4 -17 9 -20 5 -4 7 3 4 14 -6 23 -13 26 -13 6z"/>
<path d="M630 101 c0 -6 4 -13 10 -16 6 -3 7 1 4 9 -7 18 -14 21 -14 7z"/>
<path d="M620 30 c0 -17 4 -30 8 -30 5 0 7 13 4 30 -6 39 -12 39 -12 0z"/>
</g>
</svg>
